<?xml version="1.0" encoding="UTF-8" standalone="no"?>
<!-- Generator: Adobe Illustrator 19.0.0, SVG Export Plug-In . SVG Version: 6.00 Build 0)  -->

<svg
   version="1.1"
   id="Layer_1"
   x="0px"
   y="0px"
   viewBox="0 0 297 297"
   style="enable-background:new 0 0 297 297;"
   xml:space="preserve"
   xmlns="http://www.w3.org/2000/svg"
   xmlns:svg="http://www.w3.org/2000/svg"><defs
   id="defs69">
	
	
	
	
	
	
	
	
</defs>
<g
   id="g6"
   transform="matrix(0.98753117,0,0,0.978803,1.1109731,2.5922702)">
		<g
   id="g4">
			<circle
   style="fill:#c63c22"
   cx="148.5"
   cy="148.5"
   r="148.5"
   id="circle2" />
		</g>
	</g><g
   id="g12"
   transform="matrix(0.7244389,0,0,0.70448878,38.182963,9.7817333)">
		<path
   style="fill:#ffffff"
   d="m 207.444,99.107 c 9.143,0 16.556,-7.412 16.556,-16.556 0,-9.144 -7.412,-16.556 -16.556,-16.556 -0.233,0 -0.459,0.025 -0.689,0.035 0.446,-1.863 0.689,-3.805 0.689,-5.805 0,-13.715 -11.118,-24.833 -24.833,-24.833 -8.456,0 -15.919,4.23 -20.404,10.685 -2.92,-2.582 -6.747,-4.163 -10.951,-4.163 -3.669,0 -7.048,1.208 -9.793,3.228 -4.538,-5.926 -11.683,-9.751 -19.724,-9.751 -10.476,0 -19.43,6.491 -23.079,15.667 -2.156,-1.028 -4.559,-1.62 -7.106,-1.62 C 82.412,49.44 75,56.852 75,65.996 c 0,9.144 7.412,16.556 16.556,16.556 z"
   id="path10" />
	</g><g
   id="g16"
   transform="matrix(0.72890576,0,0,0.70448878,37.182386,9.7803243)">
		<path
   style="fill:#d0d5d9"
   d="m 207.444,65.996 c -0.233,0 -0.459,0.025 -0.689,0.035 0.446,-1.863 0.689,-3.805 0.689,-5.804 0,-13.715 -11.118,-24.833 -24.833,-24.833 -8.455,0 -15.919,4.23 -20.404,10.685 -2.92,-2.583 -6.747,-4.163 -10.951,-4.163 -0.882,0 -1.745,0.073 -2.589,0.208 V 90.71 l 58.777,8.397 c 9.143,0 16.556,-7.412 16.556,-16.556 0,-9.144 -7.412,-16.555 -16.556,-16.555 z"
   id="path14" />
	</g><g
   id="g20"
   transform="matrix(0.7244389,0,0,0.70448878,38.766861,-13.429763)">
		<path
   style="fill:#f0deb4"
   d="M 238.282,148.5 H 206.25 v -33 H 90.75 v 148.792 c 0,8.952 7.257,16.208 16.208,16.208 h 83.083 c 8.952,0 16.208,-7.257 16.208,-16.208 V 231 h 32.032 c 5.091,0 9.218,-4.127 9.218,-9.218 v -64.064 c 0.001,-5.091 -4.126,-9.218 -9.217,-9.218 z m -2.429,61.532 c 0,3.71 -3.008,6.718 -6.718,6.718 h -19.488 v -54 h 19.488 c 3.71,0 6.718,3.008 6.718,6.718 z"
   id="path18" />
	</g><g
   id="g24"
   transform="matrix(0.72734091,0,0,0.70448878,38.04861,9.8183667)">
		<path
   style="fill:#d8c49c"
   d="M 238.282,115.5 H 206.25 v -33 h -57.583 v 165 h 41.375 c 8.952,0 16.208,-7.257 16.208,-16.208 V 198 h 32.032 c 5.091,0 9.218,-4.127 9.218,-9.218 v -64.064 c 0,-5.091 -4.127,-9.218 -9.218,-9.218 z m -2.429,61.532 c 0,3.71 -3.008,6.718 -6.718,6.718 h -19.488 v -54 h 19.488 c 3.71,0 6.718,3.008 6.718,6.718 z"
   id="path22" />
	</g><g
   id="g28"
   transform="matrix(0.7244389,0,0,0.70448878,37.402744,11.850375)">
		<path
   style="fill:#ffa800"
   d="m 111.814,237.857 h 73.372 c 7.905,0 14.314,-6.409 14.314,-14.314 v -92.4 h -102 v 92.4 c 0,7.906 6.409,14.314 14.314,14.314 z"
   id="path26" />
	</g><g
   id="g32"
   transform="matrix(0.70258356,0,0,0.70448878,41.762885,11.850375)">
		<path
   style="fill:#ce8400"
   d="m 148.667,131.143 v 106.714 h 36.519 c 7.905,0 14.314,-6.409 14.314,-14.314 v -92.4 z"
   id="path30" />
	</g>
<g
   id="g36">
</g>
<g
   id="g38">
</g>
<g
   id="g40">
</g>
<g
   id="g42">
</g>
<g
   id="g44">
</g>
<g
   id="g46">
</g>
<g
   id="g48">
</g>
<g
   id="g50">
</g>
<g
   id="g52">
</g>
<g
   id="g54">
</g>
<g
   id="g56">
</g>
<g
   id="g58">
</g>
<g
   id="g60">
</g>
<g
   id="g62">
</g>
<g
   id="g64">
</g>
<text
   xml:space="preserve"
   style="font-style:normal;font-weight:normal;font-size:43.305px;line-height:1.25;font-family:sans-serif;fill:#000000;fill-opacity:1;stroke:none;stroke-width:1.08263"
   x="51.907646"
   y="228.1021"
   id="text1725"
   transform="scale(0.97335091,1.0273787)"><tspan
     id="tspan1723"
     x="51.907646"
     y="228.1021"
     style="stroke-width:1.08263">BeerZone</tspan></text></svg>
